<svg xmlns="http://www.w3.org/2000/svg" width="850" height="300" viewBox="0 0 850 300">
<defs><marker id="a" markerWidth="10" markerHeight="10" refX="9" refY="3" orient="auto"><path d="M0,0 L10,3 L0,6 z" fill="#333"/></marker></defs>
<text x="425.0" y="25" text-anchor="middle" font-family="Arial" font-size="18" font-weight="bold">Takarda C4 Diagram</text>
<rect x="30" y="70" width="170" height="65" rx="8" fill="#ffffff" stroke="#333333" stroke-width="2"/><text x="115.0" y="98" text-anchor="middle" font-family="Arial" font-size="15" font-weight="bold">Result Read API</text><text x="115.0" y="120" text-anchor="middle" font-family="Arial" font-size="11">auth + release check</text><rect x="260" y="70" width="170" height="65" rx="8" fill="#ffffff" stroke="#333333" stroke-width="2"/><text x="345.0" y="98" text-anchor="middle" font-family="Arial" font-size="15" font-weight="bold">Candidate service</text><text x="345.0" y="120" text-anchor="middle" font-family="Arial" font-size="11">candidate/sitting</text><rect x="490" y="70" width="170" height="65" rx="8" fill="#ffffff" stroke="#333333" stroke-width="2"/><text x="575.0" y="98" text-anchor="middle" font-family="Arial" font-size="15" font-weight="bold">School service</text><text x="575.0" y="120" text-anchor="middle" font-family="Arial" font-size="11">school/sitting</text><rect x="260" y="190" width="170" height="65" rx="8" fill="#ffffff" stroke="#333333" stroke-width="2"/><text x="345.0" y="218" text-anchor="middle" font-family="Arial" font-size="15" font-weight="bold">Prepared read store</text><text x="345.0" y="240" text-anchor="middle" font-family="Arial" font-size="11">release-day reads</text><rect x="490" y="190" width="170" height="65" rx="8" fill="#ffffff" stroke="#333333" stroke-width="2"/><text x="575.0" y="218" text-anchor="middle" font-family="Arial" font-size="15" font-weight="bold">Result repository</text><text x="575.0" y="240" text-anchor="middle" font-family="Arial" font-size="11">authoritative reads</text><rect x="700" y="130" width="110" height="65" rx="8" fill="#ffffff" stroke="#333333" stroke-width="2"/><text x="755.0" y="158" text-anchor="middle" font-family="Arial" font-size="15" font-weight="bold">Audit/history</text><text x="755.0" y="180" text-anchor="middle" font-family="Arial" font-size="11">versions</text><line x1="200" y1="102" x2="260" y2="102" stroke="#333" stroke-width="2" marker-end="url(#a)"/><line x1="200" y1="120" x2="490" y2="102" stroke="#333" stroke-width="2" marker-end="url(#a)"/><line x1="430" y1="102" x2="490" y2="222" stroke="#333" stroke-width="2" marker-end="url(#a)"/><text x="460.0" y="156.0" text-anchor="middle" font-family="Arial" font-size="11">read</text><line x1="575" y1="135" x2="575" y2="190" stroke="#333" stroke-width="2" marker-end="url(#a)"/><line x1="430" y1="222" x2="490" y2="222" stroke="#333" stroke-width="2" marker-end="url(#a)"/><line x1="660" y1="222" x2="700" y2="162" stroke="#333" stroke-width="2" marker-end="url(#a)"/><line x1="660" y1="222" x2="700" y2="195" stroke="#333" stroke-width="2" marker-end="url(#a)"/></svg>
